<svg width="56" height="47" viewBox="0 0 56 47" fill="none" xmlns="http://www.w3.org/2000/svg">
<path d="M56 36.2049C56 39.4158 54.963 42.0177 52.8889 44.0106C50.8148 46.0035 48.107 47 44.7654 47C41.5391 47 38.8313 45.8928 36.642 43.6784C34.4527 41.3534 33.358 38.0872 33.358 33.8799C33.358 29.6726 34.7984 24.5795 37.679 18.6007C40.6749 12.6219 45.1111 6.42167 50.9877 0L54.963 3.32156C51.0453 7.7503 48.3375 11.7915 46.8395 15.4452C45.3416 18.9882 44.4774 22.2544 44.2469 25.2438H44.7654C48.107 25.2438 50.8148 26.2403 52.8889 28.2332C54.963 30.2261 56 32.8834 56 36.2049ZM22.642 36.2049C22.642 39.4158 21.6049 42.0177 19.5309 44.0106C17.4568 46.0035 14.749 47 11.4074 47C8.18107 47 5.47325 45.8928 3.28395 43.6784C1.09465 41.3534 0 38.0872 0 33.8799C0 29.6726 1.44033 24.5795 4.32099 18.6007C7.31687 12.6219 11.7531 6.42167 17.6296 0L21.6049 3.32156C17.6872 7.7503 14.9794 11.7915 13.4815 15.4452C11.9835 18.9882 11.1193 22.2544 10.8889 25.2438H11.4074C14.749 25.2438 17.4568 26.2403 19.5309 28.2332C21.6049 30.2261 22.642 32.8834 22.642 36.2049Z" fill="#1DA0FF"/>
</svg>
